<mxfile host="65bd71144e">
    <diagram id="fKHkH0WBQgHcOPlKcKkM" name="Page-1">
        <mxGraphModel dx="5360" dy="2855" grid="0" gridSize="12" guides="1" tooltips="1" connect="1" arrows="1" fold="1" page="1" pageScale="1" pageWidth="2336" pageHeight="1654" background="#ffffff" math="0" shadow="0">
            <root>
                <mxCell id="0"/>
                <mxCell id="1" parent="0"/>
                <mxCell id="68" value="" style="edgeStyle=none;html=1;strokeColor=#000000;" parent="1" source="66" target="67" edge="1">
                    <mxGeometry relative="1" as="geometry"/>
                </mxCell>
                <mxCell id="66" value="" style="ellipse;whiteSpace=wrap;html=1;" parent="1" vertex="1">
                    <mxGeometry x="1109.5" y="23" width="58" height="57" as="geometry"/>
                </mxCell>
                <mxCell id="71" value="" style="edgeStyle=none;html=1;strokeColor=#000000;fontColor=#000000;" parent="1" source="67" target="70" edge="1">
                    <mxGeometry relative="1" as="geometry"/>
                </mxCell>
                <mxCell id="67" value="&lt;font color=&quot;#000000&quot;&gt;Spillet starter&lt;/font&gt;" style="rounded=1;whiteSpace=wrap;html=1;fillColor=#FFFFFF;strokeColor=#000000;" parent="1" vertex="1">
                    <mxGeometry x="1078.5" y="142" width="120" height="60" as="geometry"/>
                </mxCell>
                <mxCell id="73" value="" style="edgeStyle=none;html=1;strokeColor=#000000;fontColor=#000000;" parent="1" source="70" edge="1">
                    <mxGeometry relative="1" as="geometry">
                        <mxPoint x="1138.5" y="422" as="targetPoint"/>
                    </mxGeometry>
                </mxCell>
                <mxCell id="70" value="&lt;font color=&quot;#000000&quot;&gt;man ser jagere og dyr hoppe op fra buskene&lt;/font&gt;" style="whiteSpace=wrap;html=1;fillColor=#FFFFFF;strokeColor=#000000;rounded=1;" parent="1" vertex="1">
                    <mxGeometry x="1078.5" y="282" width="120" height="60" as="geometry"/>
                </mxCell>
                <mxCell id="159" style="edgeStyle=none;html=1;entryX=0.5;entryY=0;entryDx=0;entryDy=0;strokeColor=#000000;fontSize=20;fontColor=#000000;exitX=0.943;exitY=0.847;exitDx=0;exitDy=0;exitPerimeter=0;" parent="1" source="74" target="158" edge="1">
                    <mxGeometry relative="1" as="geometry">
                        <Array as="points">
                            <mxPoint x="1714" y="490"/>
                            <mxPoint x="2054" y="487"/>
                        </Array>
                    </mxGeometry>
                </mxCell>
                <mxCell id="181" style="edgeStyle=none;html=1;entryX=0.5;entryY=0;entryDx=0;entryDy=0;strokeColor=#000000;fontSize=14;fontColor=#000000;exitX=0.145;exitY=0.861;exitDx=0;exitDy=0;exitPerimeter=0;" parent="1" source="74" target="109" edge="1">
                    <mxGeometry relative="1" as="geometry"/>
                </mxCell>
                <mxCell id="182" value="" style="edgeStyle=none;html=1;strokeColor=#000000;fontSize=14;fontColor=#000000;" parent="1" source="74" target="131" edge="1">
                    <mxGeometry relative="1" as="geometry"/>
                </mxCell>
                <mxCell id="183" style="edgeStyle=none;html=1;entryX=0.5;entryY=0;entryDx=0;entryDy=0;strokeColor=#000000;fontSize=14;fontColor=#000000;exitX=0.867;exitY=0.269;exitDx=0;exitDy=0;exitPerimeter=0;" parent="1" source="74" target="76" edge="1">
                    <mxGeometry relative="1" as="geometry"/>
                </mxCell>
                <mxCell id="74" value="" style="whiteSpace=wrap;html=1;strokeColor=#000000;fontColor=#000000;fillColor=#000000;strokeWidth=4;" parent="1" vertex="1">
                    <mxGeometry x="478" y="422" width="1311" height="12" as="geometry"/>
                </mxCell>
                <mxCell id="79" value="" style="edgeStyle=none;html=1;strokeColor=#000000;fontColor=#000000;startArrow=none;" parent="1" source="100" edge="1">
                    <mxGeometry relative="1" as="geometry">
                        <mxPoint x="1617.0000000000002" y="624" as="targetPoint"/>
                    </mxGeometry>
                </mxCell>
                <mxCell id="76" value="Dyr (ræv eller kanin) hopper op fra busk" style="rounded=1;whiteSpace=wrap;html=1;fillColor=#FFFFFF;strokeColor=#000000;fontColor=#000000;" parent="1" vertex="1">
                    <mxGeometry x="1557" y="484" width="120" height="60" as="geometry"/>
                </mxCell>
                <mxCell id="101" value="" style="edgeStyle=none;html=1;strokeColor=#000000;fontColor=#000000;endArrow=none;" parent="1" source="76" target="100" edge="1">
                    <mxGeometry relative="1" as="geometry">
                        <mxPoint x="1617" y="544" as="sourcePoint"/>
                        <mxPoint x="1617.0000000000002" y="624" as="targetPoint"/>
                    </mxGeometry>
                </mxCell>
                <mxCell id="103" value="" style="edgeStyle=none;html=1;strokeColor=#000000;fontColor=#000000;" parent="1" source="100" target="102" edge="1">
                    <mxGeometry relative="1" as="geometry"/>
                </mxCell>
                <mxCell id="100" value="Klik på et dyr" style="html=1;shape=mxgraph.infographic.ribbonSimple;notch1=20;notch2=0;align=center;verticalAlign=middle;fontSize=14;fontStyle=0;fillColor=#FFFFFF;flipH=0;spacingRight=0;spacingLeft=14;strokeColor=#000000;fontColor=#000000;" parent="1" vertex="1">
                    <mxGeometry x="1532" y="623" width="170" height="40" as="geometry"/>
                </mxCell>
                <mxCell id="105" value="" style="edgeStyle=none;html=1;strokeColor=#000000;fontColor=#000000;" parent="1" source="102" target="104" edge="1">
                    <mxGeometry relative="1" as="geometry"/>
                </mxCell>
                <mxCell id="102" value="Der afspilles en &quot;pistol&quot; lyd" style="rounded=1;whiteSpace=wrap;html=1;fontSize=14;fillColor=#FFFFFF;strokeColor=#000000;fontColor=#000000;fontStyle=0;spacingRight=0;spacingLeft=14;" parent="1" vertex="1">
                    <mxGeometry x="1557" y="733" width="120" height="60" as="geometry"/>
                </mxCell>
                <mxCell id="107" value="" style="edgeStyle=none;html=1;strokeColor=#000000;fontColor=#000000;" parent="1" source="104" target="106" edge="1">
                    <mxGeometry relative="1" as="geometry"/>
                </mxCell>
                <mxCell id="104" value="Dyret dør" style="rounded=1;whiteSpace=wrap;html=1;fontSize=14;fillColor=#FFFFFF;strokeColor=#000000;fontColor=#000000;fontStyle=0;spacingRight=0;spacingLeft=14;" parent="1" vertex="1">
                    <mxGeometry x="1557" y="873" width="120" height="60" as="geometry"/>
                </mxCell>
                <mxCell id="151" value="" style="edgeStyle=none;html=1;strokeColor=#000000;fontColor=#000000;entryX=0.5;entryY=0;entryDx=0;entryDy=0;" parent="1" source="106" target="173" edge="1">
                    <mxGeometry relative="1" as="geometry">
                        <mxPoint x="1619.0476190476188" y="1126.9523809523812" as="targetPoint"/>
                    </mxGeometry>
                </mxCell>
                <mxCell id="106" value="Du mister et liv" style="rounded=1;whiteSpace=wrap;html=1;fontSize=14;fillColor=#FFFFFF;strokeColor=#000000;fontColor=#000000;fontStyle=0;spacingRight=0;spacingLeft=14;" parent="1" vertex="1">
                    <mxGeometry x="1557" y="1013" width="120" height="60" as="geometry"/>
                </mxCell>
                <mxCell id="108" value="" style="edgeStyle=none;html=1;strokeColor=#000000;fontColor=#000000;startArrow=none;" parent="1" edge="1">
                    <mxGeometry relative="1" as="geometry">
                        <mxPoint x="827.0000000000002" y="680" as="sourcePoint"/>
                        <mxPoint x="827.0000000000002" y="681" as="targetPoint"/>
                    </mxGeometry>
                </mxCell>
                <mxCell id="120" style="edgeStyle=none;html=1;entryX=0.5;entryY=0;entryDx=0;entryDy=0;strokeColor=#000000;fontColor=#000000;" parent="1" source="109" target="118" edge="1">
                    <mxGeometry relative="1" as="geometry"/>
                </mxCell>
                <mxCell id="109" value="Jager hopper op fra busk" style="rounded=1;whiteSpace=wrap;html=1;fillColor=#FFFFFF;strokeColor=#000000;fontColor=#000000;" parent="1" vertex="1">
                    <mxGeometry x="610" y="500" width="120" height="60" as="geometry"/>
                </mxCell>
                <mxCell id="113" value="" style="edgeStyle=none;html=1;strokeColor=#000000;fontColor=#000000;" parent="1" source="114" target="116" edge="1">
                    <mxGeometry relative="1" as="geometry"/>
                </mxCell>
                <mxCell id="114" value="Der afspilles en pistol lyd" style="rounded=1;whiteSpace=wrap;html=1;fontSize=14;fillColor=#FFFFFF;strokeColor=#000000;fontColor=#000000;fontStyle=0;spacingRight=0;spacingLeft=14;" parent="1" vertex="1">
                    <mxGeometry x="767" y="790" width="120" height="60" as="geometry"/>
                </mxCell>
                <mxCell id="115" value="" style="edgeStyle=none;html=1;strokeColor=#000000;fontColor=#000000;" parent="1" source="116" target="117" edge="1">
                    <mxGeometry relative="1" as="geometry"/>
                </mxCell>
                <mxCell id="116" value="Jageren dør" style="rounded=1;whiteSpace=wrap;html=1;fontSize=14;fillColor=#FFFFFF;strokeColor=#000000;fontColor=#000000;fontStyle=0;spacingRight=0;spacingLeft=14;" parent="1" vertex="1">
                    <mxGeometry x="767" y="930" width="120" height="60" as="geometry"/>
                </mxCell>
                <mxCell id="148" style="edgeStyle=none;html=1;strokeColor=#000000;fontColor=#000000;" parent="1" source="117" edge="1">
                    <mxGeometry relative="1" as="geometry">
                        <mxPoint x="827" y="1272.7680982506795" as="targetPoint"/>
                    </mxGeometry>
                </mxCell>
                <mxCell id="117" value="Du får 1 point" style="rounded=1;whiteSpace=wrap;html=1;fontSize=14;fillColor=#FFFFFF;strokeColor=#000000;fontColor=#000000;fontStyle=0;spacingRight=0;spacingLeft=14;" parent="1" vertex="1">
                    <mxGeometry x="767" y="1070" width="120" height="60" as="geometry"/>
                </mxCell>
                <mxCell id="119" style="edgeStyle=none;html=1;strokeColor=#000000;fontColor=#000000;entryX=0.5;entryY=0;entryDx=0;entryDy=0;" parent="1" source="118" target="114" edge="1">
                    <mxGeometry relative="1" as="geometry">
                        <mxPoint x="823" y="783" as="targetPoint"/>
                        <Array as="points">
                            <mxPoint x="823" y="653"/>
                        </Array>
                    </mxGeometry>
                </mxCell>
                <mxCell id="123" value="" style="edgeStyle=none;html=1;strokeColor=#000000;fontColor=#000000;entryX=0.319;entryY=0.032;entryDx=0;entryDy=0;entryPerimeter=0;" parent="1" source="118" edge="1">
                    <mxGeometry relative="1" as="geometry">
                        <mxPoint x="526.2799999999997" y="789.9200000000001" as="targetPoint"/>
                        <Array as="points">
                            <mxPoint x="528" y="653"/>
                        </Array>
                    </mxGeometry>
                </mxCell>
                <mxCell id="118" value="" style="rhombus;whiteSpace=wrap;html=1;strokeColor=#000000;fontColor=#000000;fillColor=#FFFFFF;" parent="1" vertex="1">
                    <mxGeometry x="630" y="613" width="80" height="80" as="geometry"/>
                </mxCell>
                <mxCell id="121" value="[Bruger klikker&lt;br&gt;&amp;nbsp;på jager]" style="text;html=1;align=center;verticalAlign=middle;resizable=0;points=[];autosize=1;strokeColor=none;fillColor=none;fontColor=#000000;" parent="1" vertex="1">
                    <mxGeometry x="722" y="615" width="95" height="41" as="geometry"/>
                </mxCell>
                <mxCell id="128" value="" style="edgeStyle=none;html=1;strokeColor=#000000;fontColor=#000000;" parent="1" source="122" target="125" edge="1">
                    <mxGeometry relative="1" as="geometry"/>
                </mxCell>
                <mxCell id="122" value="Der afspilles en &quot;fail&quot; lyd" style="rounded=1;whiteSpace=wrap;html=1;fillColor=#FFFFFF;strokeColor=#000000;fontColor=#000000;" parent="1" vertex="1">
                    <mxGeometry x="488" y="762" width="120" height="60" as="geometry"/>
                </mxCell>
                <mxCell id="124" value="[Brugeren klikker&amp;nbsp;&lt;br&gt;ikke på jager]" style="text;html=1;align=center;verticalAlign=middle;resizable=0;points=[];autosize=1;strokeColor=none;fillColor=none;fontColor=#000000;" parent="1" vertex="1">
                    <mxGeometry x="522" y="613" width="111" height="41" as="geometry"/>
                </mxCell>
                <mxCell id="153" style="edgeStyle=none;html=1;entryX=0.02;entryY=0.066;entryDx=0;entryDy=0;entryPerimeter=0;strokeColor=#000000;fontColor=#000000;" parent="1" source="125" target="147" edge="1">
                    <mxGeometry relative="1" as="geometry"/>
                </mxCell>
                <mxCell id="125" value="Du mister 2 point" style="whiteSpace=wrap;html=1;fillColor=#FFFFFF;strokeColor=#000000;fontColor=#000000;rounded=1;" parent="1" vertex="1">
                    <mxGeometry x="488" y="902" width="120" height="60" as="geometry"/>
                </mxCell>
                <mxCell id="129" value="" style="edgeStyle=none;html=1;strokeColor=#000000;fontColor=#000000;startArrow=none;" parent="1" edge="1">
                    <mxGeometry relative="1" as="geometry">
                        <mxPoint x="1286" y="664" as="sourcePoint"/>
                        <mxPoint x="1286" y="665" as="targetPoint"/>
                    </mxGeometry>
                </mxCell>
                <mxCell id="130" style="edgeStyle=none;html=1;entryX=0.5;entryY=0;entryDx=0;entryDy=0;strokeColor=#000000;fontColor=#000000;" parent="1" source="131" target="139" edge="1">
                    <mxGeometry relative="1" as="geometry"/>
                </mxCell>
                <mxCell id="131" value="Jager i dyrekostume hopper op fra busk" style="rounded=1;whiteSpace=wrap;html=1;fillColor=#FFFFFF;strokeColor=#000000;fontColor=#000000;" parent="1" vertex="1">
                    <mxGeometry x="1069" y="484" width="120" height="60" as="geometry"/>
                </mxCell>
                <mxCell id="132" value="" style="edgeStyle=none;html=1;strokeColor=#000000;fontColor=#000000;" parent="1" source="133" target="135" edge="1">
                    <mxGeometry relative="1" as="geometry"/>
                </mxCell>
                <mxCell id="133" value="Der afspilles en &quot;pistol&quot; lyd" style="rounded=1;whiteSpace=wrap;html=1;fontSize=14;fillColor=#FFFFFF;strokeColor=#000000;fontColor=#000000;fontStyle=0;spacingRight=0;spacingLeft=14;" parent="1" vertex="1">
                    <mxGeometry x="1226" y="774" width="120" height="60" as="geometry"/>
                </mxCell>
                <mxCell id="134" value="" style="edgeStyle=none;html=1;strokeColor=#000000;fontColor=#000000;" parent="1" source="135" target="136" edge="1">
                    <mxGeometry relative="1" as="geometry"/>
                </mxCell>
                <mxCell id="135" value="Jageren dør" style="rounded=1;whiteSpace=wrap;html=1;fontSize=14;fillColor=#FFFFFF;strokeColor=#000000;fontColor=#000000;fontStyle=0;spacingRight=0;spacingLeft=14;" parent="1" vertex="1">
                    <mxGeometry x="1226" y="914" width="120" height="60" as="geometry"/>
                </mxCell>
                <mxCell id="149" style="edgeStyle=none;html=1;entryX=0.584;entryY=0.042;entryDx=0;entryDy=0;entryPerimeter=0;strokeColor=#000000;fontColor=#000000;" parent="1" source="136" target="147" edge="1">
                    <mxGeometry relative="1" as="geometry"/>
                </mxCell>
                <mxCell id="136" value="Du får 5 points" style="rounded=1;whiteSpace=wrap;html=1;fontSize=14;fillColor=#FFFFFF;strokeColor=#000000;fontColor=#000000;fontStyle=0;spacingRight=0;spacingLeft=14;" parent="1" vertex="1">
                    <mxGeometry x="1226" y="1054" width="120" height="60" as="geometry"/>
                </mxCell>
                <mxCell id="137" style="edgeStyle=none;html=1;strokeColor=#000000;fontColor=#000000;entryX=0.5;entryY=0;entryDx=0;entryDy=0;" parent="1" source="139" target="133" edge="1">
                    <mxGeometry relative="1" as="geometry">
                        <mxPoint x="1282" y="767" as="targetPoint"/>
                        <Array as="points">
                            <mxPoint x="1282" y="637"/>
                        </Array>
                    </mxGeometry>
                </mxCell>
                <mxCell id="138" value="" style="edgeStyle=none;html=1;strokeColor=#000000;fontColor=#000000;entryX=0.319;entryY=0.032;entryDx=0;entryDy=0;entryPerimeter=0;" parent="1" source="139" edge="1">
                    <mxGeometry relative="1" as="geometry">
                        <mxPoint x="985.2799999999997" y="773.9200000000001" as="targetPoint"/>
                        <Array as="points">
                            <mxPoint x="987" y="637"/>
                        </Array>
                    </mxGeometry>
                </mxCell>
                <mxCell id="139" value="" style="rhombus;whiteSpace=wrap;html=1;strokeColor=#000000;fontColor=#000000;fillColor=#FFFFFF;" parent="1" vertex="1">
                    <mxGeometry x="1089" y="597" width="80" height="80" as="geometry"/>
                </mxCell>
                <mxCell id="140" value="[Bruger klikker&lt;br&gt;&amp;nbsp;på jager]" style="text;html=1;align=center;verticalAlign=middle;resizable=0;points=[];autosize=1;strokeColor=none;fillColor=none;fontColor=#000000;" parent="1" vertex="1">
                    <mxGeometry x="1181" y="599" width="95" height="41" as="geometry"/>
                </mxCell>
                <mxCell id="142" value="[Brugeren klikker&amp;nbsp;&lt;br&gt;ikke på jager]" style="text;html=1;align=center;verticalAlign=middle;resizable=0;points=[];autosize=1;strokeColor=none;fillColor=none;fontColor=#000000;" parent="1" vertex="1">
                    <mxGeometry x="981" y="597" width="111" height="41" as="geometry"/>
                </mxCell>
                <mxCell id="144" value="" style="edgeStyle=none;html=1;strokeColor=#000000;fontColor=#000000;" parent="1" source="145" target="146" edge="1">
                    <mxGeometry relative="1" as="geometry"/>
                </mxCell>
                <mxCell id="145" value="Du får ikke nogle points" style="rounded=1;whiteSpace=wrap;html=1;fillColor=#FFFFFF;strokeColor=#000000;fontColor=#000000;" parent="1" vertex="1">
                    <mxGeometry x="931" y="774" width="120" height="60" as="geometry"/>
                </mxCell>
                <mxCell id="174" style="edgeStyle=none;html=1;strokeColor=#000000;fontSize=20;fontColor=#000000;" parent="1" source="146" edge="1">
                    <mxGeometry relative="1" as="geometry">
                        <mxPoint x="991" y="1271.8788618607953" as="targetPoint"/>
                    </mxGeometry>
                </mxCell>
                <mxCell id="146" value="" style="whiteSpace=wrap;html=1;fillColor=#FFFFFF;strokeColor=#000000;fontColor=#000000;rounded=1;" parent="1" vertex="1">
                    <mxGeometry x="931" y="914" width="120" height="60" as="geometry"/>
                </mxCell>
                <mxCell id="155" style="edgeStyle=none;html=1;entryX=0;entryY=0;entryDx=0;entryDy=0;strokeColor=#000000;fontColor=#000000;" parent="1" source="147" target="74" edge="1">
                    <mxGeometry relative="1" as="geometry">
                        <Array as="points">
                            <mxPoint x="1178" y="1380"/>
                            <mxPoint x="373" y="1380"/>
                            <mxPoint x="366" y="422"/>
                        </Array>
                    </mxGeometry>
                </mxCell>
                <mxCell id="147" value="" style="whiteSpace=wrap;html=1;strokeColor=#000000;fontColor=#000000;fillColor=#000000;strokeWidth=3;" parent="1" vertex="1">
                    <mxGeometry x="522" y="1274" width="1311" height="12" as="geometry"/>
                </mxCell>
                <mxCell id="152" value="" style="edgeStyle=none;html=1;strokeColor=#000000;fontColor=#000000;entryX=0.839;entryY=-0.017;entryDx=0;entryDy=0;entryPerimeter=0;exitX=0.521;exitY=0.927;exitDx=0;exitDy=0;exitPerimeter=0;" parent="1" target="147" edge="1">
                    <mxGeometry relative="1" as="geometry">
                        <mxPoint x="1621.6800000000003" y="1200.16" as="sourcePoint"/>
                    </mxGeometry>
                </mxCell>
                <mxCell id="163" value="" style="edgeStyle=none;html=1;strokeColor=#000000;fontSize=20;fontColor=#000000;exitX=1;exitY=0.5;exitDx=0;exitDy=0;" parent="1" source="173" target="162" edge="1">
                    <mxGeometry relative="1" as="geometry">
                        <mxPoint x="1659.6694214876034" y="1166.3305785123966" as="sourcePoint"/>
                    </mxGeometry>
                </mxCell>
                <mxCell id="154" value="[Stadig liv tilbage]" style="text;html=1;align=center;verticalAlign=middle;resizable=0;points=[];autosize=1;strokeColor=none;fillColor=none;fontColor=#000000;" parent="1" vertex="1">
                    <mxGeometry x="1622" y="1225" width="112" height="26" as="geometry"/>
                </mxCell>
                <mxCell id="156" value="&lt;font style=&quot;font-size: 20px;&quot;&gt;[Spillet stadig i gang]&lt;/font&gt;" style="text;html=1;align=center;verticalAlign=middle;resizable=0;points=[];autosize=1;strokeColor=none;fillColor=none;fontColor=#000000;" parent="1" vertex="1">
                    <mxGeometry x="658" y="1385" width="203" height="36" as="geometry"/>
                </mxCell>
                <mxCell id="166" value="" style="edgeStyle=none;html=1;strokeColor=#000000;fontSize=20;fontColor=#000000;" parent="1" source="158" target="165" edge="1">
                    <mxGeometry relative="1" as="geometry"/>
                </mxCell>
                <mxCell id="158" value="" style="shape=collate;whiteSpace=wrap;html=1;strokeColor=#000000;strokeWidth=2;fontSize=20;fontColor=#000000;fillColor=#FFFFFF;" parent="1" vertex="1">
                    <mxGeometry x="2018" y="546" width="68" height="67" as="geometry"/>
                </mxCell>
                <mxCell id="164" style="edgeStyle=none;html=1;entryX=0.389;entryY=0.03;entryDx=0;entryDy=0;strokeColor=#000000;fontSize=20;fontColor=#000000;entryPerimeter=0;" parent="1" target="162" edge="1">
                    <mxGeometry relative="1" as="geometry">
                        <mxPoint x="2012" y="800" as="sourcePoint"/>
                        <Array as="points">
                            <mxPoint x="1962" y="800"/>
                        </Array>
                    </mxGeometry>
                </mxCell>
                <mxCell id="170" style="edgeStyle=none;html=1;entryX=0.01;entryY=0.323;entryDx=0;entryDy=0;strokeColor=#000000;fontSize=20;fontColor=#000000;exitX=0.422;exitY=0.996;exitDx=0;exitDy=0;exitPerimeter=0;entryPerimeter=0;" parent="1" source="162" target="167" edge="1">
                    <mxGeometry relative="1" as="geometry">
                        <Array as="points">
                            <mxPoint x="1971" y="1337"/>
                        </Array>
                    </mxGeometry>
                </mxCell>
                <mxCell id="162" value="Game over" style="whiteSpace=wrap;html=1;fontSize=14;fillColor=#FFFFFF;strokeColor=#000000;fontColor=#000000;rounded=1;fontStyle=0;spacingRight=0;spacingLeft=14;" parent="1" vertex="1">
                    <mxGeometry x="1920" y="1139" width="120" height="60" as="geometry"/>
                </mxCell>
                <mxCell id="172" value="" style="edgeStyle=none;html=1;strokeColor=#000000;fontSize=20;fontColor=#000000;exitX=1;exitY=0.5;exitDx=0;exitDy=0;entryX=0.362;entryY=0;entryDx=0;entryDy=0;entryPerimeter=0;" parent="1" source="165" target="171" edge="1">
                    <mxGeometry relative="1" as="geometry">
                        <mxPoint x="2155" y="1137" as="targetPoint"/>
                        <Array as="points">
                            <mxPoint x="2146" y="800"/>
                        </Array>
                    </mxGeometry>
                </mxCell>
                <mxCell id="165" value="" style="rhombus;whiteSpace=wrap;html=1;fontSize=20;fillColor=#FFFFFF;strokeColor=#000000;fontColor=#000000;strokeWidth=1;" parent="1" vertex="1">
                    <mxGeometry x="2012" y="760" width="80" height="80" as="geometry"/>
                </mxCell>
                <mxCell id="167" value="" style="ellipse;whiteSpace=wrap;html=1;aspect=fixed;strokeColor=#000000;strokeWidth=2;fontSize=20;fontColor=#000000;fillColor=#FFFFFF;" parent="1" vertex="1">
                    <mxGeometry x="2042" y="1311" width="80" height="80" as="geometry"/>
                </mxCell>
                <mxCell id="168" value="" style="ellipse;whiteSpace=wrap;html=1;aspect=fixed;strokeColor=#000000;strokeWidth=2;fontSize=20;fontColor=#000000;fillColor=#000000;direction=south;" parent="1" vertex="1">
                    <mxGeometry x="2053" y="1322" width="58" height="58" as="geometry"/>
                </mxCell>
                <mxCell id="175" style="edgeStyle=none;html=1;strokeColor=#000000;fontSize=14;fontColor=#000000;" parent="1" source="171" edge="1">
                    <mxGeometry relative="1" as="geometry">
                        <mxPoint x="2122.7843376608457" y="1344.666690602022" as="targetPoint"/>
                        <Array as="points">
                            <mxPoint x="2162" y="1345"/>
                        </Array>
                    </mxGeometry>
                </mxCell>
                <mxCell id="171" value="&lt;font style=&quot;font-size: 14px;&quot;&gt;Game complete&lt;/font&gt;" style="rounded=1;whiteSpace=wrap;html=1;fontSize=20;fillColor=#FFFFFF;strokeColor=#000000;fontColor=#000000;strokeWidth=1;" parent="1" vertex="1">
                    <mxGeometry x="2105" y="1139" width="120" height="60" as="geometry"/>
                </mxCell>
                <mxCell id="173" value="" style="rhombus;whiteSpace=wrap;html=1;strokeColor=#000000;strokeWidth=1;fontSize=20;fontColor=#000000;fillColor=#FFFFFF;" parent="1" vertex="1">
                    <mxGeometry x="1586" y="1130" width="72" height="69" as="geometry"/>
                </mxCell>
                <mxCell id="176" value="[ Ingen liv tilbage]" style="text;html=1;align=center;verticalAlign=middle;resizable=0;points=[];autosize=1;strokeColor=none;fillColor=none;fontSize=14;fontColor=#000000;" parent="1" vertex="1">
                    <mxGeometry x="1728" y="1135" width="127" height="29" as="geometry"/>
                </mxCell>
                <mxCell id="178" value="Spillet slutter efter 45 minutter" style="text;html=1;align=center;verticalAlign=middle;resizable=0;points=[];autosize=1;strokeColor=none;fillColor=none;fontSize=14;fontColor=#000000;" parent="1" vertex="1">
                    <mxGeometry x="2080" y="565" width="204" height="29" as="geometry"/>
                </mxCell>
                <mxCell id="179" value="[ 30 points eller&lt;br&gt;&amp;nbsp;mere]" style="text;html=1;align=center;verticalAlign=middle;resizable=0;points=[];autosize=1;strokeColor=none;fillColor=none;fontSize=14;fontColor=#000000;" parent="1" vertex="1">
                    <mxGeometry x="2070" y="749" width="113" height="46" as="geometry"/>
                </mxCell>
                <mxCell id="184" value="&lt;span id=&quot;docs-internal-guid-0f33d48f-7fff-6c19-4e70-39654d51b7ec&quot; style=&quot;font-size: 19px;&quot;&gt;&lt;span style=&quot;font-size: 19px; font-family: Arial, sans-serif; font-variant-numeric: normal; font-variant-east-asian: normal; font-variant-alternates: normal; vertical-align: baseline;&quot;&gt;&lt;b style=&quot;font-size: 19px;&quot;&gt;Guardian of the Wild: &lt;/b&gt;&lt;span style=&quot;font-size: 19px;&quot;&gt;Du spiller som Moder Natur og din opgave er af beskytte naturens dyr fra de onde jagere, der &lt;br&gt;ønkser, at dræbe&amp;nbsp;dem for deres pels.Det gælder om at skyde jagerne, der popper op fra buskene,inden de forsvinder igen.&lt;br&gt;&lt;ul&gt;&lt;li style=&quot;text-align: left;&quot;&gt;&lt;span id=&quot;docs-internal-guid-0f33d48f-7fff-6c19-4e70-39654d51b7ec&quot; style=&quot;font-size: 19px;&quot;&gt;&lt;span style=&quot;font-size: 19px; font-family: Arial, sans-serif; font-variant-numeric: normal; font-variant-east-asian: normal; font-variant-alternates: normal; vertical-align: baseline;&quot;&gt;&lt;span style=&quot;font-size: 19px;&quot;&gt;Hvis du skyder en jager for du 1 point&lt;/span&gt;&lt;/span&gt;&lt;/span&gt;&lt;/li&gt;&lt;li style=&quot;text-align: left;&quot;&gt;&lt;span style=&quot;background-color: initial;&quot;&gt;Hvis du misser en jager mister du 1 point&lt;/span&gt;&lt;br&gt;&lt;/li&gt;&lt;li style=&quot;text-align: left;&quot;&gt;&lt;span style=&quot;font-variant-numeric: normal; font-variant-east-asian: normal; font-variant-alternates: normal; vertical-align: baseline;&quot;&gt;Hvis du skyder en jager i kostume får du 5 points&lt;/span&gt;&lt;/li&gt;&lt;li style=&quot;text-align: left;&quot;&gt;&lt;span style=&quot;font-variant-numeric: normal; font-variant-east-asian: normal; font-variant-alternates: normal; vertical-align: baseline;&quot;&gt;Hvis du misser en jager i kostume, mister du 3 points&lt;/span&gt;&lt;/li&gt;&lt;li style=&quot;text-align: left;&quot;&gt;&lt;span style=&quot;font-size: 19px;&quot;&gt;&lt;span style=&quot;font-size: 19px; font-family: Arial, sans-serif; font-variant-numeric: normal; font-variant-east-asian: normal; font-variant-alternates: normal; vertical-align: baseline;&quot;&gt;&lt;span style=&quot;font-size: 19px;&quot;&gt;Hvis du skyder et dyr mister du et liv&lt;/span&gt;&lt;/span&gt;&lt;/span&gt;&lt;/li&gt;&lt;/ul&gt;&lt;div style=&quot;text-align: left;&quot;&gt;Spillet slutter når der er gået 45 minutter eller hvis du gar mistet alle dine liv&lt;/div&gt;&lt;div style=&quot;text-align: left;&quot;&gt;Du har vundet hvis du har 30 points eller der over&lt;/div&gt;&lt;div style=&quot;text-align: left;&quot;&gt;Du har tabt hvis du mister alle dine liv eller har under 30 points ved slut.&lt;/div&gt;&lt;/span&gt;&lt;/span&gt;&lt;/span&gt;" style="text;html=1;align=center;verticalAlign=middle;resizable=0;points=[];autosize=1;strokeColor=none;fillColor=none;fontSize=19;fontColor=#000000;labelBackgroundColor=none;labelBorderColor=none;" parent="1" vertex="1">
                    <mxGeometry x="1278" y="2" width="1047" height="308" as="geometry"/>
                </mxCell>
            </root>
        </mxGraphModel>
    </diagram>
</mxfile>